<?xml version="1.0" encoding="UTF-8" standalone="no" ?>
<!DOCTYPE svg PUBLIC "-//W3C//DTD SVG 1.1//EN" "http://www.w3.org/Graphics/SVG/1.1/DTD/svg11.dtd">
<svg xmlns="http://www.w3.org/2000/svg" xmlns:xlink="http://www.w3.org/1999/xlink" version="1.1" width="400" height="400" viewBox="0 0 400 400" xml:space="preserve">
<desc>Created with Fabric.js 3.6.2</desc>
<defs>
</defs>
<g transform="matrix(4.17 0 0 4.17 245.83 218.75)" id="Layer_1"  >
<path style="stroke: none; stroke-width: 1; stroke-dasharray: none; stroke-linecap: butt; stroke-dashoffset: 0; stroke-linejoin: miter; stroke-miterlimit: 4; fill: rgb(30,136,229); fill-rule: nonzero; opacity: 1;"  transform=" translate(-35, -28.5)" d="M 42 41 H 28 V 16 h 10 c 2.199 0 4 1.801 4 4 V 41 z" stroke-linecap="round" />
</g>
<g transform="matrix(4.17 0 0 4.17 245.83 275)" id="Layer_1"  >
<path style="stroke: none; stroke-width: 1; stroke-dasharray: none; stroke-linecap: butt; stroke-dashoffset: 0; stroke-linejoin: miter; stroke-miterlimit: 4; fill: rgb(25,118,210); fill-rule: nonzero; opacity: 1;"  transform=" translate(-35, -42)" d="M 28 41 h 14 v 2 H 28 V 41 z" stroke-linecap="round" />
</g>
<g transform="matrix(4.17 0 0 4.17 250 195.83)" id="Layer_1"  >
<path style="stroke: none; stroke-width: 1; stroke-dasharray: none; stroke-linecap: butt; stroke-dashoffset: 0; stroke-linejoin: miter; stroke-miterlimit: 4; fill: rgb(13,71,161); fill-rule: nonzero; opacity: 1;"  transform=" translate(-36, -23)" d="M 34 21 h 4 v 4 h -4 V 21 z" stroke-linecap="round" />
</g>
<g transform="matrix(4.17 0 0 4.17 250 225)" id="Layer_1"  >
<path style="stroke: none; stroke-width: 1; stroke-dasharray: none; stroke-linecap: butt; stroke-dashoffset: 0; stroke-linejoin: miter; stroke-miterlimit: 4; fill: rgb(13,71,161); fill-rule: nonzero; opacity: 1;"  transform=" translate(-36, -30)" d="M 34 28 h 4 v 4 h -4 V 28 z" stroke-linecap="round" />
</g>
<g transform="matrix(4.17 0 0 4.17 250 254.17)" id="Layer_1"  >
<path style="stroke: none; stroke-width: 1; stroke-dasharray: none; stroke-linecap: butt; stroke-dashoffset: 0; stroke-linejoin: miter; stroke-miterlimit: 4; fill: rgb(13,71,161); fill-rule: nonzero; opacity: 1;"  transform=" translate(-36, -37)" d="M 34 35 h 4 v 4 h -4 V 35 z" stroke-linecap="round" />
</g>
<g transform="matrix(4.17 0 0 4.17 179.17 129.17)" id="Layer_1"  >
<rect style="stroke: none; stroke-width: 1; stroke-dasharray: none; stroke-linecap: butt; stroke-dashoffset: 0; stroke-linejoin: miter; stroke-miterlimit: 4; fill: rgb(100,181,246); fill-rule: nonzero; opacity: 1;"  x="-10" y="-2" rx="0" ry="0" width="20" height="4" />
</g>
<g transform="matrix(4.17 0 0 4.17 179.17 202.08)" id="Layer_1"  >
<path style="stroke: none; stroke-width: 1; stroke-dasharray: none; stroke-linecap: butt; stroke-dashoffset: 0; stroke-linejoin: miter; stroke-miterlimit: 4; fill: rgb(144,202,249); fill-rule: nonzero; opacity: 1;"  transform=" translate(-19, -24.5)" d="M 32 41 H 6 V 10 c 0 -1.1 0.9 -2 2 -2 h 22 c 1.1 0 2 0.9 2 2 V 41 z" stroke-linecap="round" />
</g>
<g transform="matrix(4.17 0 0 4.17 179.17 275)" id="Layer_1"  >
<path style="stroke: none; stroke-width: 1; stroke-dasharray: none; stroke-linecap: butt; stroke-dashoffset: 0; stroke-linejoin: miter; stroke-miterlimit: 4; fill: rgb(100,181,246); fill-rule: nonzero; opacity: 1;"  transform=" translate(-19, -42)" d="M 6 41 h 26 v 2 H 6 V 41 z" stroke-linecap="round" />
</g>
<g transform="matrix(4.17 0 0 4.17 179.17 250)" id="Layer_1"  >
<path style="stroke: none; stroke-width: 1; stroke-dasharray: none; stroke-linecap: butt; stroke-dashoffset: 0; stroke-linejoin: miter; stroke-miterlimit: 4; fill: rgb(21,101,192); fill-rule: nonzero; opacity: 1;"  transform=" translate(-19, -36)" d="M 17 33 h 4 v 6 h -4 V 33 z" stroke-linecap="round" />
</g>
<g transform="matrix(4.17 0 0 4.17 150 250)" id="Layer_1"  >
<path style="stroke: none; stroke-width: 1; stroke-dasharray: none; stroke-linecap: butt; stroke-dashoffset: 0; stroke-linejoin: miter; stroke-miterlimit: 4; fill: rgb(21,101,192); fill-rule: nonzero; opacity: 1;"  transform=" translate(-12, -36)" d="M 10 33 h 4 v 6 h -4 V 33 z" stroke-linecap="round" />
</g>
<g transform="matrix(4.17 0 0 4.17 208.33 250)" id="Layer_1"  >
<path style="stroke: none; stroke-width: 1; stroke-dasharray: none; stroke-linecap: butt; stroke-dashoffset: 0; stroke-linejoin: miter; stroke-miterlimit: 4; fill: rgb(21,101,192); fill-rule: nonzero; opacity: 1;"  transform=" translate(-26, -36)" d="M 24 33 h 4 v 6 h -4 V 33 z" stroke-linecap="round" />
</g>
<g transform="matrix(4.17 0 0 4.17 179.17 187.5)" id="Layer_1"  >
<path style="stroke: none; stroke-width: 1; stroke-dasharray: none; stroke-linecap: butt; stroke-dashoffset: 0; stroke-linejoin: miter; stroke-miterlimit: 4; fill: rgb(21,101,192); fill-rule: nonzero; opacity: 1;"  transform=" translate(-19, -21)" d="M 17 19 h 4 v 4 h -4 V 19 z" stroke-linecap="round" />
</g>
<g transform="matrix(4.17 0 0 4.17 150 187.5)" id="Layer_1"  >
<path style="stroke: none; stroke-width: 1; stroke-dasharray: none; stroke-linecap: butt; stroke-dashoffset: 0; stroke-linejoin: miter; stroke-miterlimit: 4; fill: rgb(21,101,192); fill-rule: nonzero; opacity: 1;"  transform=" translate(-12, -21)" d="M 10 19 h 4 v 4 h -4 V 19 z" stroke-linecap="round" />
</g>
<g transform="matrix(4.17 0 0 4.17 208.33 187.5)" id="Layer_1"  >
<path style="stroke: none; stroke-width: 1; stroke-dasharray: none; stroke-linecap: butt; stroke-dashoffset: 0; stroke-linejoin: miter; stroke-miterlimit: 4; fill: rgb(21,101,192); fill-rule: nonzero; opacity: 1;"  transform=" translate(-26, -21)" d="M 24 19 h 4 v 4 h -4 V 19 z" stroke-linecap="round" />
</g>
<g transform="matrix(4.17 0 0 4.17 179.17 216.67)" id="Layer_1"  >
<path style="stroke: none; stroke-width: 1; stroke-dasharray: none; stroke-linecap: butt; stroke-dashoffset: 0; stroke-linejoin: miter; stroke-miterlimit: 4; fill: rgb(21,101,192); fill-rule: nonzero; opacity: 1;"  transform=" translate(-19, -28)" d="M 17 26 h 4 v 4 h -4 V 26 z" stroke-linecap="round" />
</g>
<g transform="matrix(4.17 0 0 4.17 150 216.67)" id="Layer_1"  >
<path style="stroke: none; stroke-width: 1; stroke-dasharray: none; stroke-linecap: butt; stroke-dashoffset: 0; stroke-linejoin: miter; stroke-miterlimit: 4; fill: rgb(21,101,192); fill-rule: nonzero; opacity: 1;"  transform=" translate(-12, -28)" d="M 10 26 h 4 v 4 h -4 V 26 z" stroke-linecap="round" />
</g>
<g transform="matrix(4.17 0 0 4.17 208.33 216.67)" id="Layer_1"  >
<path style="stroke: none; stroke-width: 1; stroke-dasharray: none; stroke-linecap: butt; stroke-dashoffset: 0; stroke-linejoin: miter; stroke-miterlimit: 4; fill: rgb(21,101,192); fill-rule: nonzero; opacity: 1;"  transform=" translate(-26, -28)" d="M 24 26 h 4 v 4 h -4 V 26 z" stroke-linecap="round" />
</g>
<g transform="matrix(4.17 0 0 4.17 179.17 158.33)" id="Layer_1"  >
<path style="stroke: none; stroke-width: 1; stroke-dasharray: none; stroke-linecap: butt; stroke-dashoffset: 0; stroke-linejoin: miter; stroke-miterlimit: 4; fill: rgb(21,101,192); fill-rule: nonzero; opacity: 1;"  transform=" translate(-19, -14)" d="M 17 12 h 4 v 4 h -4 V 12 z" stroke-linecap="round" />
</g>
<g transform="matrix(4.17 0 0 4.17 150 158.33)" id="Layer_1"  >
<path style="stroke: none; stroke-width: 1; stroke-dasharray: none; stroke-linecap: butt; stroke-dashoffset: 0; stroke-linejoin: miter; stroke-miterlimit: 4; fill: rgb(21,101,192); fill-rule: nonzero; opacity: 1;"  transform=" translate(-12, -14)" d="M 10 12 h 4 v 4 h -4 V 12 z" stroke-linecap="round" />
</g>
<g transform="matrix(4.17 0 0 4.17 208.33 158.33)" id="Layer_1"  >
<path style="stroke: none; stroke-width: 1; stroke-dasharray: none; stroke-linecap: butt; stroke-dashoffset: 0; stroke-linejoin: miter; stroke-miterlimit: 4; fill: rgb(21,101,192); fill-rule: nonzero; opacity: 1;"  transform=" translate(-26, -14)" d="M 24 12 h 4 v 4 h -4 V 12 z" stroke-linecap="round" />
</g>
</svg>