<?xml version="1.0" encoding="UTF-8" standalone="no" ?>
<!DOCTYPE svg PUBLIC "-//W3C//DTD SVG 1.1//EN" "http://www.w3.org/Graphics/SVG/1.1/DTD/svg11.dtd">
<svg xmlns="http://www.w3.org/2000/svg" xmlns:xlink="http://www.w3.org/1999/xlink" version="1.1" width="400" height="400" viewBox="0 0 400 400" xml:space="preserve">
<desc>Created with Fabric.js 3.6.2</desc>
<defs>
</defs>
<g transform="matrix(0.39 0 0 0.39 199.98 188.65)" id="Layer_1"  >
<path style="stroke: none; stroke-width: 1; stroke-dasharray: none; stroke-linecap: butt; stroke-dashoffset: 0; stroke-linejoin: miter; stroke-miterlimit: 4; fill: rgb(100,183,178); fill-rule: nonzero; opacity: 1;"  transform=" translate(-255.95, -226.95)" d="M 90.4 379.5 c 10.5 -9.3 37.1 -30 125.5 -68.8 l 81 0.5 c 88.5 38.8 114.1 58.9 124.6 68.2 c 4.1 3.6 7.7 9.6 10.9 17.4 c 24.7 -35.1 39.2 -77.9 39.2 -124.1 C 471.7 153.6 375.1 57 256 57 C 136.9 57 40.3 153.6 40.3 272.8 c 0 46.2 14.5 89 39.2 124.1 C 82.8 389.1 86.4 383 90.4 379.5 z" stroke-linecap="round" />
</g>
<g transform="matrix(0.39 0 0 0.39 199.98 255.88)" id="Layer_1"  >
<path style="stroke: none; stroke-width: 1; stroke-dasharray: none; stroke-linecap: butt; stroke-dashoffset: 0; stroke-linejoin: miter; stroke-miterlimit: 4; fill: rgb(0,167,157); fill-rule: nonzero; opacity: 1;"  transform=" translate(-255.95, -399.05)" d="M 142.9 456.5 c 1.2 -9.6 2 -15.4 2 -15.4 s 0 6.2 0 16.7 c 26.5 15.9 56.6 26.3 88.9 29.6 l 14.1 -98.6 l -11.1 -16.3 l 19.4 -19.7 l 18.5 19.5 l -10.7 16.5 l 14.1 98.6 c 32.2 -3.3 62.3 -13.7 88.7 -29.5 c 0 -10.5 0 -16.8 0 -16.8 s 0.8 5.9 2 15.5 c 25 -15.4 46.7 -35.8 63.6 -59.8 c -3.3 -7.7 -6.9 -13.8 -10.9 -17.4 c -10.5 -9.3 -36.1 -29.4 -124.6 -68.2 l -81 -0.5 c -88.5 38.8 -115.1 59.5 -125.5 68.8 c -4.1 3.6 -7.6 9.6 -10.9 17.4 C 96.4 420.8 117.9 441.1 142.9 456.5 z" stroke-linecap="round" />
</g>
<g transform="matrix(0.39 0 0 0.39 191.64 207.79)" id="Layer_1"  >
<path style="stroke: none; stroke-width: 1; stroke-dasharray: none; stroke-linecap: butt; stroke-dashoffset: 0; stroke-linejoin: miter; stroke-miterlimit: 4; fill: rgb(220,197,161); fill-rule: nonzero; opacity: 1;"  transform=" translate(-234.6, -275.95)" d="M 213.3 236.5 v 97.2 c 11.7 13.8 27.1 21 42.6 21.1 V 197.1 C 234.6 197.1 213.3 210.2 213.3 236.5 z" stroke-linecap="round" />
</g>
<g transform="matrix(0.39 0 0 0.39 208.28 207.79)" id="Layer_1"  >
<path style="stroke: none; stroke-width: 1; stroke-dasharray: none; stroke-linecap: butt; stroke-dashoffset: 0; stroke-linejoin: miter; stroke-miterlimit: 4; fill: rgb(237,217,180); fill-rule: nonzero; opacity: 1;"  transform=" translate(-277.2, -275.95)" d="M 255.9 197.1 v 157.7 c 15.4 0.1 30.9 -6.8 42.6 -21.1 v -97.2 C 298.5 210.2 277.2 197.1 255.9 197.1 z" stroke-linecap="round" />
</g>
<g transform="matrix(0.39 0 0 0.39 199.96 199.46)" id="Layer_1"  >
<path style="stroke: none; stroke-width: 1; stroke-dasharray: none; stroke-linecap: butt; stroke-dashoffset: 0; stroke-linejoin: miter; stroke-miterlimit: 4; fill: rgb(188,159,130); fill-rule: evenodd; opacity: 1;"  transform=" translate(-255.9, -254.61)" d="M 298.5 232.6 v 65.1 c -16.1 11.7 -31.6 18.3 -42.6 18.3 c -10.9 0 -26.5 -6.6 -42.6 -18.3 v -65.1 C 213.3 180.1 298.5 180.1 298.5 232.6" stroke-linecap="round" />
</g>
<g transform="matrix(0.39 0 0 0.39 224.53 130.31)" id="Layer_1"  >
<path style="stroke: none; stroke-width: 1; stroke-dasharray: none; stroke-linecap: butt; stroke-dashoffset: 0; stroke-linejoin: miter; stroke-miterlimit: 4; fill: rgb(75,31,13); fill-rule: evenodd; opacity: 1;"  transform=" translate(-318.8, -77.6)" d="M 318.8 111.5 c 18.7 0 33.9 -15.2 33.9 -33.9 c 0 -18.7 -15.2 -33.9 -33.9 -33.9 c -18.7 0 -33.9 15.3 -33.9 33.9 C 284.9 96.3 300.1 111.5 318.8 111.5" stroke-linecap="round" />
</g>
<g transform="matrix(0.39 0 0 0.39 211.52 124.49)" id="Layer_1"  >
<path style="stroke: none; stroke-width: 1; stroke-dasharray: none; stroke-linecap: butt; stroke-dashoffset: 0; stroke-linejoin: miter; stroke-miterlimit: 4; fill: rgb(75,31,13); fill-rule: evenodd; opacity: 1;"  transform=" translate(-285.5, -62.7)" d="M 285.5 96.6 c 18.7 0 33.9 -15.2 33.9 -33.9 c 0 -18.7 -15.2 -33.9 -33.9 -33.9 c -18.7 0 -33.9 15.2 -33.9 33.9 C 251.6 81.4 266.8 96.6 285.5 96.6" stroke-linecap="round" />
</g>
<g transform="matrix(0.39 0 0 0.39 191.64 122.46)" id="Layer_1"  >
<path style="stroke: none; stroke-width: 1; stroke-dasharray: none; stroke-linecap: butt; stroke-dashoffset: 0; stroke-linejoin: miter; stroke-miterlimit: 4; fill: rgb(75,31,13); fill-rule: evenodd; opacity: 1;"  transform=" translate(-234.6, -57.5)" d="M 234.6 91.4 c 18.7 0 33.9 -15.2 33.9 -33.9 c 0 -18.7 -15.2 -33.9 -33.9 -33.9 c -18.7 0 -33.9 15.2 -33.9 33.9 C 200.6 76.1 215.9 91.4 234.6 91.4" stroke-linecap="round" />
</g>
<g transform="matrix(0.39 0 0 0.39 173.79 128.95)" id="Layer_1"  >
<path style="stroke: none; stroke-width: 1; stroke-dasharray: none; stroke-linecap: butt; stroke-dashoffset: 0; stroke-linejoin: miter; stroke-miterlimit: 4; fill: rgb(75,31,13); fill-rule: evenodd; opacity: 1;"  transform=" translate(-188.9, -74.1)" d="M 188.9 108 c 18.7 0 33.9 -15.3 33.9 -33.9 c 0 -18.7 -15.2 -33.9 -33.9 -33.9 c -18.7 0 -33.9 15.2 -33.9 33.9 C 155 92.8 170.3 108 188.9 108" stroke-linecap="round" />
</g>
<g transform="matrix(0.39 0 0 0.39 163.52 143.71)" id="Layer_1"  >
<path style="stroke: none; stroke-width: 1; stroke-dasharray: none; stroke-linecap: butt; stroke-dashoffset: 0; stroke-linejoin: miter; stroke-miterlimit: 4; fill: rgb(75,31,13); fill-rule: evenodd; opacity: 1;"  transform=" translate(-162.6, -111.9)" d="M 162.6 145.8 c 18.7 0 33.9 -15.2 33.9 -33.9 c 0 -18.7 -15.2 -33.9 -33.9 -33.9 c -18.7 0 -33.9 15.2 -33.9 33.9 C 128.7 130.5 143.9 145.8 162.6 145.8" stroke-linecap="round" />
</g>
<g transform="matrix(0.39 0 0 0.39 235.86 144.02)" id="Layer_1"  >
<path style="stroke: none; stroke-width: 1; stroke-dasharray: none; stroke-linecap: butt; stroke-dashoffset: 0; stroke-linejoin: miter; stroke-miterlimit: 4; fill: rgb(75,31,13); fill-rule: evenodd; opacity: 1;"  transform=" translate(-347.8, -112.7)" d="M 347.8 146.6 c 18.7 0 33.9 -15.2 33.9 -33.9 c 0 -18.7 -15.3 -33.9 -33.9 -33.9 c -18.7 0 -33.9 15.2 -33.9 33.9 C 313.9 131.4 329.1 146.6 347.8 146.6" stroke-linecap="round" />
</g>
<g transform="matrix(0.39 0 0 0.39 236.52 162.54)" id="Layer_1"  >
<path style="stroke: none; stroke-width: 1; stroke-dasharray: none; stroke-linecap: butt; stroke-dashoffset: 0; stroke-linejoin: miter; stroke-miterlimit: 4; fill: rgb(75,31,13); fill-rule: evenodd; opacity: 1;"  transform=" translate(-349.5, -160.1)" d="M 349.5 194 c 18.7 0 33.9 -15.2 33.9 -33.9 c 0 -18.7 -15.2 -33.9 -33.9 -33.9 c -18.7 0 -33.9 15.2 -33.9 33.9 C 315.6 178.8 330.9 194 349.5 194" stroke-linecap="round" />
</g>
<g transform="matrix(0.39 0 0 0.39 226.95 184.84)" id="Layer_1"  >
<path style="stroke: none; stroke-width: 1; stroke-dasharray: none; stroke-linecap: butt; stroke-dashoffset: 0; stroke-linejoin: miter; stroke-miterlimit: 4; fill: rgb(75,31,13); fill-rule: evenodd; opacity: 1;"  transform=" translate(-325, -217.2)" d="M 325 251.1 c 18.7 0 33.9 -15.2 33.9 -33.9 c 0 -18.7 -15.2 -33.9 -33.9 -33.9 c -18.7 0 -33.9 15.2 -33.9 33.9 C 291 235.8 306.3 251.1 325 251.1" stroke-linecap="round" />
</g>
<g transform="matrix(0.39 0 0 0.39 162.5 160.51)" id="Layer_1"  >
<path style="stroke: none; stroke-width: 1; stroke-dasharray: none; stroke-linecap: butt; stroke-dashoffset: 0; stroke-linejoin: miter; stroke-miterlimit: 4; fill: rgb(75,31,13); fill-rule: evenodd; opacity: 1;"  transform=" translate(-160, -154.9)" d="M 160 188.8 c 18.7 0 33.9 -15.2 33.9 -33.9 c 0 -18.7 -15.2 -33.9 -33.9 -33.9 c -18.7 0 -33.9 15.2 -33.9 33.9 C 126.1 173.5 141.3 188.8 160 188.8" stroke-linecap="round" />
</g>
<g transform="matrix(0.39 0 0 0.39 172.11 186.56)" id="Layer_1"  >
<path style="stroke: none; stroke-width: 1; stroke-dasharray: none; stroke-linecap: butt; stroke-dashoffset: 0; stroke-linejoin: miter; stroke-miterlimit: 4; fill: rgb(75,31,13); fill-rule: evenodd; opacity: 1;"  transform=" translate(-184.6, -221.6)" d="M 184.6 255.5 c 18.7 0 33.9 -15.2 33.9 -33.9 c 0 -18.7 -15.2 -33.9 -33.9 -33.9 c -18.7 0 -33.9 15.2 -33.9 33.9 C 150.6 240.2 165.9 255.5 184.6 255.5" stroke-linecap="round" />
</g>
<g transform="matrix(0.39 0 0 0.39 234.65 175.23)" id="Layer_1"  >
<path style="stroke: none; stroke-width: 1; stroke-dasharray: none; stroke-linecap: butt; stroke-dashoffset: 0; stroke-linejoin: miter; stroke-miterlimit: 4; fill: rgb(75,31,13); fill-rule: evenodd; opacity: 1;"  transform=" translate(-344.7, -192.6)" d="M 344.7 226.5 c 18.7 0 33.9 -15.2 33.9 -33.9 c 0 -18.7 -15.2 -33.9 -33.9 -33.9 c -18.7 0 -33.9 15.2 -33.9 33.9 C 310.7 211.2 326 226.5 344.7 226.5" stroke-linecap="round" />
</g>
<g transform="matrix(0.39 0 0 0.39 164.41 174.3)" id="Layer_1"  >
<path style="stroke: none; stroke-width: 1; stroke-dasharray: none; stroke-linecap: butt; stroke-dashoffset: 0; stroke-linejoin: miter; stroke-miterlimit: 4; fill: rgb(75,31,13); fill-rule: evenodd; opacity: 1;"  transform=" translate(-164.9, -190.2)" d="M 164.9 224.1 c 18.7 0 33.9 -15.2 33.9 -33.9 c 0 -18.7 -15.2 -33.9 -33.9 -33.9 c -18.7 0 -33.9 15.2 -33.9 33.9 C 131 208.8 146.2 224.1 164.9 224.1" stroke-linecap="round" />
</g>
<g transform="matrix(0.39 0 0 0.39 177.23 171.39)" id="Layer_1"  >
<path style="stroke: none; stroke-width: 1; stroke-dasharray: none; stroke-linecap: butt; stroke-dashoffset: 0; stroke-linejoin: miter; stroke-miterlimit: 4; fill: rgb(220,197,161); fill-rule: evenodd; opacity: 1;"  transform=" translate(-197.71, -182.75)" d="M 157.5 176.1 c -3.4 -2.5 -7.1 -3.5 -10.3 -2.5 c -7.5 2.5 -10.1 15 -5.8 27.9 c 4.3 13 13.8 21.5 21.3 19 c 0.5 -0.2 1 -0.4 1.5 -0.7 c 3.6 14.8 7.6 25.4 9.7 28.4 c 10.3 15.2 59.1 55.3 82.2 55.3 V 62 C 170.6 62 154.5 123.6 157.5 176.1 z" stroke-linecap="round" />
</g>
<g transform="matrix(0.39 0 0 0.39 223.07 171.43)" id="Layer_1"  >
<path style="stroke: none; stroke-width: 1; stroke-dasharray: none; stroke-linecap: butt; stroke-dashoffset: 0; stroke-linejoin: miter; stroke-miterlimit: 4; fill: rgb(237,217,180); fill-rule: evenodd; opacity: 1;"  transform=" translate(-315.05, -182.85)" d="M 366.3 173.7 c -3.8 -1.3 -8.1 0.3 -12.1 3.9 C 357.6 124.7 342 62 255.9 62 h 0 v 241.7 h 0 c 23.1 0 71.9 -40.2 82.2 -55.3 c 2.1 -3.1 6.3 -14.1 9.9 -29.4 c 0.9 0.7 1.8 1.3 2.9 1.6 c 7.5 2.5 17 -6 21.3 -19 C 376.4 188.7 373.8 176.2 366.3 173.7 z" stroke-linecap="round" />
</g>
<g transform="matrix(0.39 0 0 0.39 195.39 133.75)" id="Layer_1"  >
<path style="stroke: none; stroke-width: 1; stroke-dasharray: none; stroke-linecap: butt; stroke-dashoffset: 0; stroke-linejoin: miter; stroke-miterlimit: 4; fill: rgb(75,31,13); fill-rule: evenodd; opacity: 1;"  transform=" translate(-244.2, -86.4)" d="M 244.2 120.3 c 18.7 0 33.9 -15.2 33.9 -33.9 c 0 -18.7 -15.2 -33.9 -33.9 -33.9 c -18.7 0 -33.9 15.2 -33.9 33.9 C 210.3 105.1 225.5 120.3 244.2 120.3" stroke-linecap="round" />
</g>
<g transform="matrix(0.39 0 0 0.39 213.55 133.09)" id="Layer_1"  >
<path style="stroke: none; stroke-width: 1; stroke-dasharray: none; stroke-linecap: butt; stroke-dashoffset: 0; stroke-linejoin: miter; stroke-miterlimit: 4; fill: rgb(75,31,13); fill-rule: evenodd; opacity: 1;"  transform=" translate(-290.7, -84.7)" d="M 290.7 118.6 c 18.7 0 33.9 -15.2 33.9 -33.9 c 0 -18.7 -15.2 -33.9 -33.9 -33.9 c -18.7 0 -33.9 15.2 -33.9 33.9 C 256.8 103.3 272.1 118.6 290.7 118.6" stroke-linecap="round" />
</g>
<g transform="matrix(0.39 0 0 0.39 182.03 137.89)" id="Layer_1"  >
<path style="stroke: none; stroke-width: 1; stroke-dasharray: none; stroke-linecap: butt; stroke-dashoffset: 0; stroke-linejoin: miter; stroke-miterlimit: 4; fill: rgb(75,31,13); fill-rule: evenodd; opacity: 1;"  transform=" translate(-210, -97)" d="M 210 130.9 c 18.7 0 33.9 -15.2 33.9 -33.9 c 0 -18.7 -15.2 -33.9 -33.9 -33.9 c -18.7 0 -33.9 15.2 -33.9 33.9 C 176.1 115.6 191.3 130.9 210 130.9" stroke-linecap="round" />
</g>
<g transform="matrix(0.39 0 0 0.39 172.19 144.45)" id="Layer_1"  >
<path style="stroke: none; stroke-width: 1; stroke-dasharray: none; stroke-linecap: butt; stroke-dashoffset: 0; stroke-linejoin: miter; stroke-miterlimit: 4; fill: rgb(75,31,13); fill-rule: evenodd; opacity: 1;"  transform=" translate(-184.8, -113.8)" d="M 184.8 142.7 c 15.9 0 28.9 -13 28.9 -28.9 c 0 -15.9 -13 -28.9 -28.9 -28.9 c -15.9 0 -28.9 13 -28.9 28.9 C 155.9 129.7 168.9 142.7 184.8 142.7" stroke-linecap="round" />
</g>
<g transform="matrix(0.39 0 0 0.39 224.22 141.29)" id="Layer_1"  >
<path style="stroke: none; stroke-width: 1; stroke-dasharray: none; stroke-linecap: butt; stroke-dashoffset: 0; stroke-linejoin: miter; stroke-miterlimit: 4; fill: rgb(75,31,13); fill-rule: evenodd; opacity: 1;"  transform=" translate(-318, -105.7)" d="M 318 139.6 c 18.7 0 33.9 -15.2 33.9 -33.9 c 0 -18.7 -15.2 -33.9 -33.9 -33.9 c -18.7 0 -33.9 15.2 -33.9 33.9 C 284 124.4 299.3 139.6 318 139.6" stroke-linecap="round" />
</g>
<g transform="matrix(0.39 0 0 0.39 234.96 154.18)" id="Layer_1"  >
<path style="stroke: none; stroke-width: 1; stroke-dasharray: none; stroke-linecap: butt; stroke-dashoffset: 0; stroke-linejoin: miter; stroke-miterlimit: 4; fill: rgb(75,31,13); fill-rule: evenodd; opacity: 1;"  transform=" translate(-345.5, -138.7)" d="M 345.5 162.6 c 13.2 0 23.9 -10.8 23.9 -23.9 c 0 -13.2 -10.8 -23.9 -23.9 -23.9 c -13.2 0 -23.9 10.8 -23.9 23.9 C 321.6 151.9 332.3 162.6 345.5 162.6" stroke-linecap="round" />
</g>
<g transform="matrix(0.39 0 0 0.39 166.17 156.25)" id="Layer_1"  >
<path style="stroke: none; stroke-width: 1; stroke-dasharray: none; stroke-linecap: butt; stroke-dashoffset: 0; stroke-linejoin: miter; stroke-miterlimit: 4; fill: rgb(75,31,13); fill-rule: evenodd; opacity: 1;"  transform=" translate(-169.4, -144)" d="M 169.4 167.2 c 12.8 0 23.2 -10.4 23.2 -23.2 c 0 -12.8 -10.4 -23.2 -23.2 -23.2 c -12.8 0 -23.2 10.4 -23.2 23.2 C 146.2 156.8 156.6 167.2 169.4 167.2" stroke-linecap="round" />
</g>
<g transform="matrix(0.39 0 0 0.39 164.3 165.7)" id="Layer_1"  >
<path style="stroke: none; stroke-width: 1; stroke-dasharray: none; stroke-linecap: butt; stroke-dashoffset: 0; stroke-linejoin: miter; stroke-miterlimit: 4; fill: rgb(75,31,13); fill-rule: evenodd; opacity: 1;"  transform=" translate(-164.6, -168.2)" d="M 164.6 183 c 8.2 0 14.8 -6.7 14.8 -14.8 c 0 -8.2 -6.7 -14.8 -14.8 -14.8 c -8.2 0 -14.8 6.7 -14.8 14.8 C 149.7 176.4 156.4 183 164.6 183" stroke-linecap="round" />
</g>
<g transform="matrix(0.39 0 0 0.39 236.6 166.41)" id="Layer_1"  >
<path style="stroke: none; stroke-width: 1; stroke-dasharray: none; stroke-linecap: butt; stroke-dashoffset: 0; stroke-linejoin: miter; stroke-miterlimit: 4; fill: rgb(75,31,13); fill-rule: evenodd; opacity: 1;"  transform=" translate(-349.7, -170)" d="M 349.7 184.8 c 8.2 0 14.8 -6.7 14.8 -14.8 c 0 -8.2 -6.7 -14.8 -14.8 -14.8 c -8.2 0 -14.8 6.7 -14.8 14.8 C 334.9 178.1 341.6 184.8 349.7 184.8" stroke-linecap="round" />
</g>
<g transform="matrix(0.39 0 0 0.39 164.96 172.58)" id="Layer_1"  >
<path style="stroke: none; stroke-width: 1; stroke-dasharray: none; stroke-linecap: butt; stroke-dashoffset: 0; stroke-linejoin: miter; stroke-miterlimit: 4; fill: rgb(75,31,13); fill-rule: evenodd; opacity: 1;"  transform=" translate(-166.3, -185.8)" d="M 166.3 196.2 c 5.8 0 10.4 -4.7 10.4 -10.4 c 0 -5.7 -4.7 -10.4 -10.4 -10.4 c -5.7 0 -10.4 4.7 -10.4 10.4 C 155.9 191.5 160.6 196.2 166.3 196.2" stroke-linecap="round" />
</g>
<g transform="matrix(0.39 0 0 0.39 235.94 172.23)" id="Layer_1"  >
<path style="stroke: none; stroke-width: 1; stroke-dasharray: none; stroke-linecap: butt; stroke-dashoffset: 0; stroke-linejoin: miter; stroke-miterlimit: 4; fill: rgb(75,31,13); fill-rule: evenodd; opacity: 1;"  transform=" translate(-348, -184.9)" d="M 348 195.3 c 5.8 0 10.4 -4.7 10.4 -10.4 c 0 -5.7 -4.7 -10.4 -10.4 -10.4 c -5.7 0 -10.4 4.7 -10.4 10.4 C 337.6 190.6 342.2 195.3 348 195.3" stroke-linecap="round" />
</g>
<g transform="matrix(0.39 0 0 0.39 199.81 174.72)" id="Layer_1"  >
<path style="stroke: none; stroke-width: 1; stroke-dasharray: none; stroke-linecap: butt; stroke-dashoffset: 0; stroke-linejoin: miter; stroke-miterlimit: 4; fill: rgb(1,1,1); fill-rule: nonzero; opacity: 1;"  transform=" translate(-255.5, -191.27)" d="M 349.6 171.9 c -2.7 -2.1 -27.9 -10.8 -37.5 -11.1 c 0 0 -21.6 -2.6 -32.3 2.4 c -10.7 4.9 -12.9 4.2 -23.3 4.7 c 0 0 -0.4 0 -1 0 c -0.7 0 -1 0 -1 0 c -10.4 -0.5 -12.6 0.2 -23.3 -4.7 c -10.7 -4.9 -32.3 -2.4 -32.3 -2.4 c -9.6 0.2 -34.8 8.9 -37.5 11.1 c -2.7 2.1 0 5.5 0 5.5 c 10.9 -0.9 12.3 17.5 12.3 17.5 c 1.3 5 3.1 9.5 6 13.7 c 3.6 5.2 8.7 9.4 14.7 11.6 c 5.7 2.1 11 2.2 17.1 2.2 c 7.9 -0.1 15.2 -2.1 21.2 -7.2 c 11.1 -9.3 14.9 -33.5 14.9 -33.5 c -1.5 -0.7 -1.6 -3.5 -1.6 -3.5 c -0.1 -4.1 6.4 -4.5 8.5 -4.5 c 0.3 0 0.6 0 1 0 c 0.4 0 0.7 0 1 0 c 2 0 8.6 0.4 8.5 4.5 c 0 0 -0.1 2.8 -1.6 3.5 c 0 0 3.9 24.2 14.9 33.5 c 6 5 13.4 7.1 21.2 7.2 c 6.1 0.1 11.4 -0.1 17.1 -2.2 c 6 -2.2 11.1 -6.4 14.7 -11.6 c 2.9 -4.2 4.8 -8.8 6 -13.7 c 0 0 1.4 -18.5 12.4 -17.5 C 349.6 177.4 352.3 174 349.6 171.9 M 240.5 190.7 c -2 14.1 -5.7 21.5 -14.7 25.7 c -9.1 4.2 -17 3.5 -17 3.5 s -7.7 0.7 -16.8 -3.5 c -9.1 -4.2 -12.5 -11.6 -14.5 -25.7 c -0.3 -2.4 -0.6 -4.8 -0.6 -7.2 c 0.1 -6.6 3.3 -13.9 9.7 -16.8 c 4 -1.8 9.4 -2.4 13.7 -2.7 c 2.8 -0.2 5.7 -0.4 8.5 -0.4 c 0.9 0 1.8 0.1 2.7 0.2 c 7.3 0.6 16.1 0.6 22.4 4.8 c 1.1 0.8 2.2 1.6 3.2 2.7 C 241.8 176.5 241.5 184.1 240.5 190.7 M 333.4 190.7 c -2 14.1 -5.4 21.5 -14.5 25.7 c -9.1 4.2 -16.8 3.5 -16.8 3.5 s -7.9 0.7 -17 -3.5 c -9.1 -4.2 -12.7 -11.6 -14.7 -25.7 c -0.9 -6.6 -1.3 -14.2 3.5 -19.4 c 1 -1.1 2 -1.9 3.2 -2.7 c 6.3 -4.2 15.1 -4.2 22.4 -4.8 c 0.9 -0.1 1.8 -0.2 2.6 -0.2 c 2.8 0 5.7 0.2 8.5 0.4 c 4.3 0.3 9.8 0.9 13.7 2.7 c 6.3 2.9 9.6 10.2 9.7 16.8 C 334 185.8 333.8 188.3 333.4 190.7" stroke-linecap="round" />
</g>
<g transform="matrix(0.39 0 0 0.39 181.64 174.91)" id="Layer_1" clip-path="url(#CLIPPATH_5)"  >
<clipPath id="CLIPPATH_5" >
	<rect transform="matrix(1 0 0 1 0 -0.12)" id="SVGID_2_" x="-32.1" y="-28.15" rx="0" ry="0" width="64.2" height="56.3" />
</clipPath>
<path style="stroke: none; stroke-width: 1; stroke-dasharray: none; stroke-linecap: butt; stroke-dashoffset: 0; stroke-linejoin: miter; stroke-miterlimit: 4; fill: rgb(92,57,21); fill-rule: nonzero; opacity: 0.3;"  transform=" translate(-209, -191.77)" d="M 240.5 190.7 c -2 14.1 -5.7 21.5 -14.7 25.7 c -9.1 4.2 -17 3.5 -17 3.5 s -7.7 0.7 -16.8 -3.5 c -9.1 -4.2 -12.5 -11.6 -14.5 -25.7 c -0.3 -2.4 -0.6 -4.8 -0.6 -7.2 c 0.1 -6.6 3.3 -13.9 9.7 -16.8 c 4 -1.8 9.4 -2.4 13.7 -2.7 c 2.8 -0.2 5.7 -0.4 8.5 -0.4 c 0.9 0 1.8 0.1 2.7 0.2 c 7.3 0.6 16.1 0.6 22.4 4.8 c 1.1 0.8 2.2 1.6 3.2 2.7 C 241.8 176.5 241.5 184.1 240.5 190.7" stroke-linecap="round" />
</g>
<g transform="matrix(0.39 0 0 0.39 217.94 174.91)" id="Layer_1" clip-path="url(#CLIPPATH_6)"  >
<clipPath id="CLIPPATH_6" >
	<rect transform="matrix(1 0 0 1 -0.02 -0.12)" id="SVGID_4_" x="-32.1" y="-28.15" rx="0" ry="0" width="64.2" height="56.3" />
</clipPath>
<path style="stroke: none; stroke-width: 1; stroke-dasharray: none; stroke-linecap: butt; stroke-dashoffset: 0; stroke-linejoin: miter; stroke-miterlimit: 4; fill: rgb(92,57,21); fill-rule: nonzero; opacity: 0.3;"  transform=" translate(-301.92, -191.77)" d="M 333.4 190.7 c -2 14.1 -5.4 21.5 -14.5 25.7 c -9.1 4.2 -16.8 3.5 -16.8 3.5 s -7.9 0.7 -17 -3.5 c -9.1 -4.2 -12.7 -11.6 -14.7 -25.7 c -0.9 -6.6 -1.3 -14.2 3.5 -19.4 c 1 -1.1 2 -1.9 3.2 -2.7 c 6.3 -4.2 15.1 -4.2 22.4 -4.8 c 0.9 -0.1 1.8 -0.2 2.6 -0.2 c 2.8 0 5.7 0.2 8.5 0.4 c 4.3 0.3 9.8 0.9 13.7 2.7 c 6.3 2.9 9.6 10.2 9.7 16.8 C 334 185.8 333.8 188.3 333.4 190.7" stroke-linecap="round" />
</g>
<g transform="matrix(0.39 0 0 0.39 190.86 234.59)" id="Layer_1"  >
<polygon style="stroke: none; stroke-width: 1; stroke-dasharray: none; stroke-linecap: butt; stroke-dashoffset: 0; stroke-linejoin: miter; stroke-miterlimit: 4; fill: rgb(237,237,237); fill-rule: evenodd; opacity: 1;"  points="-19.3,-45.15 -23.3,-30.95 -12.8,45.15 23.3,7.85 " />
</g>
<g transform="matrix(0.39 0 0 0.39 208.95 234.8)" id="Layer_1"  >
<polygon style="stroke: none; stroke-width: 1; stroke-dasharray: none; stroke-linecap: butt; stroke-dashoffset: 0; stroke-linejoin: miter; stroke-miterlimit: 4; fill: rgb(237,237,237); fill-rule: evenodd; opacity: 1;"  points="19.6,-45.4 23,-31.7 13.2,45.4 -23,7.3 " />
</g>
<g transform="matrix(0.39 0 0 0.39 200 251.97)" id="Layer_1" clip-path="url(#CLIPPATH_7)"  >
<clipPath id="CLIPPATH_7" >
	<rect transform="matrix(1 0 0 1 -0.05 0)" id="SVGID_6_" x="-8.15" y="-0.25" rx="0" ry="0" width="16.3" height="0.5" />
</clipPath>
<polygon style="stroke: none; stroke-width: 1; stroke-dasharray: none; stroke-linecap: butt; stroke-dashoffset: 0; stroke-linejoin: miter; stroke-miterlimit: 4; fill: rgb(1,1,1); fill-rule: evenodd; opacity: 0.1;"  points="-8.1,-0.25 8.1,-0.25 8.1,0.25 -8.1,0.25 " />
</g>
<g transform="matrix(0.39 0 0 0.39 183.36 173.95)" id="Layer_1"  >
<path style="stroke: none; stroke-width: 1; stroke-dasharray: none; stroke-linecap: butt; stroke-dashoffset: 0; stroke-linejoin: miter; stroke-miterlimit: 4; fill: rgb(52,34,20); fill-rule: nonzero; opacity: 1;"  transform=" translate(-213.4, -189.3)" d="M 213.4 177.2 c 5.9 0 10.7 5.4 10.7 12.1 c 0 6.7 -4.8 12.1 -10.7 12.1 c -5.9 0 -10.7 -5.4 -10.7 -12.1 C 202.8 182.6 207.6 177.2 213.4 177.2" stroke-linecap="round" />
</g>
<g transform="matrix(0.39 0 0 0.39 217.19 173.95)" id="Layer_1"  >
<path style="stroke: none; stroke-width: 1; stroke-dasharray: none; stroke-linecap: butt; stroke-dashoffset: 0; stroke-linejoin: miter; stroke-miterlimit: 4; fill: rgb(52,34,20); fill-rule: nonzero; opacity: 1;"  transform=" translate(-300, -189.3)" d="M 300 177.2 c 5.9 0 10.7 5.4 10.7 12.1 c 0 6.7 -4.8 12.1 -10.7 12.1 c -5.9 0 -10.7 -5.4 -10.7 -12.1 C 289.4 182.6 294.1 177.2 300 177.2" stroke-linecap="round" />
</g>
<g transform="matrix(0.39 0 0 0.39 200.27 201.87)" id="Layer_1"  >
<path style="stroke: none; stroke-width: 1; stroke-dasharray: none; stroke-linecap: butt; stroke-dashoffset: 0; stroke-linejoin: miter; stroke-miterlimit: 4; fill: rgb(255,255,255); fill-rule: nonzero; opacity: 1;"  transform=" translate(-256.7, -260.8)" d="M 234.7 253.7 c 3.8 8.4 12.2 14.2 22 14.2 c 9.8 0 18.2 -5.8 22 -14.2 H 234.7 z" stroke-linecap="round" />
</g>
<g transform="matrix(0.39 0 0 0.39 200 290.82)" id="Layer_1"  >
<polygon style="stroke: none; stroke-width: 1; stroke-dasharray: none; stroke-linecap: butt; stroke-dashoffset: 0; stroke-linejoin: miter; stroke-miterlimit: 4; fill: rgb(190,30,45); fill-rule: nonzero; opacity: 1;"  points="0,0 0,0 0,0 " />
</g>
<g transform="matrix(0.39 0 0 0.39 156.21 275.53)" id="Layer_1"  >
<path style="stroke: none; stroke-width: 1; stroke-dasharray: none; stroke-linecap: butt; stroke-dashoffset: 0; stroke-linejoin: miter; stroke-miterlimit: 4; fill: rgb(32,13,69); fill-rule: nonzero; opacity: 1;"  transform=" translate(-143.9, -449.35)" d="M 142.9 456.5 c 0.7 0.4 1.4 0.8 2 1.2 c 0 -10.4 0 -16.7 0 -16.7 S 144.1 446.9 142.9 456.5 z" stroke-linecap="round" />
</g>
<g transform="matrix(0.39 0 0 0.39 243.73 275.59)" id="Layer_1"  >
<path style="stroke: none; stroke-width: 1; stroke-dasharray: none; stroke-linecap: butt; stroke-dashoffset: 0; stroke-linejoin: miter; stroke-miterlimit: 4; fill: rgb(32,13,69); fill-rule: nonzero; opacity: 1;"  transform=" translate(-367.95, -449.5)" d="M 366.9 457.9 c 0.7 -0.4 1.4 -0.8 2.1 -1.3 c -1.2 -9.6 -2 -15.5 -2 -15.5 S 366.9 447.4 366.9 457.9 z" stroke-linecap="round" />
</g>
<g transform="matrix(0.39 0 0 0.39 200.04 264.24)" id="Layer_1"  >
<path style="stroke: none; stroke-width: 1; stroke-dasharray: none; stroke-linecap: butt; stroke-dashoffset: 0; stroke-linejoin: miter; stroke-miterlimit: 4; fill: rgb(0,0,0); fill-rule: nonzero; opacity: 1;"  transform=" translate(-256.1, -420.45)" d="M 264.1 388.8 l 10.8 -16.4 l -18.9 -20 l -19.3 20 l 11.3 16.4 l -14.1 98.6 c 7.3 0.7 14.7 1.1 22.2 1.1 h 0 c 7.5 0 14.9 -0.4 22.2 -1.1 L 264.1 388.8 z" stroke-linecap="round" />
</g>
</svg>